<?xml version="1.0" standalone="no"?>
<!DOCTYPE svg PUBLIC "-//W3C//DTD SVG 20010904//EN"
 "http://www.w3.org/TR/2001/REC-SVG-20010904/DTD/svg10.dtd">
<svg version="1.0" xmlns="http://www.w3.org/2000/svg"
 width="1280.000000pt" height="1280.000000pt" viewBox="0 0 1280.000000 1280.000000"
 preserveAspectRatio="xMidYMid meet">
<metadata>
Created by potrace 1.11, written by Peter Selinger 2001-2013
</metadata>
<g transform="translate(0.000000,1280.000000) scale(0.100000,-0.100000)"
fill="#000000" stroke="none">
<path d="M1285 7122 c-3 -3 -20 -7 -38 -9 -17 -2 -40 -4 -49 -5 -10 -1 -18 -5
-18 -8 0 -3 -10 -6 -22 -7 -28 -2 -118 -45 -118 -56 0 -4 -4 -5 -10 -2 -5 3
-10 1 -10 -5 0 -6 -4 -9 -8 -6 -5 3 -20 -6 -35 -20 -15 -14 -27 -22 -27 -18 0
4 -8 -3 -19 -14 -10 -12 -21 -19 -25 -15 -3 3 -6 1 -6 -5 0 -7 -19 -31 -42
-54 -44 -46 -101 -129 -112 -165 -4 -13 -12 -23 -18 -23 -6 0 -9 -3 -5 -6 3
-3 -1 -25 -10 -47 -8 -23 -16 -52 -19 -64 -2 -13 -7 -35 -10 -50 -9 -40 -9
-210 0 -263 21 -128 87 -267 167 -354 11 -11 19 -23 19 -28 0 -4 5 -8 10 -8 6
0 22 -12 35 -26 14 -15 25 -24 25 -21 0 3 12 -5 26 -18 14 -13 35 -27 45 -30
11 -4 19 -11 19 -16 0 -5 7 -9 15 -9 9 0 26 -6 38 -14 12 -8 35 -17 51 -20 16
-3 32 -9 35 -14 3 -5 13 -9 21 -10 8 0 33 -4 55 -8 48 -9 238 -9 280 0 17 4
37 8 45 9 66 13 91 21 96 28 3 5 10 7 15 4 5 -4 9 -1 9 5 0 7 7 10 15 6 8 -3
15 -1 15 5 0 6 5 7 10 4 6 -3 10 -3 10 2 0 4 10 13 23 19 69 35 89 48 94 60 3
8 9 11 14 8 5 -3 9 3 9 12 0 10 3 15 6 11 4 -3 13 1 22 10 14 13 16 59 16 341
1 371 1 371 -71 367 -21 -1 -46 2 -55 7 -10 5 -18 5 -18 1 0 -5 -13 -8 -30 -8
-16 -1 -30 4 -30 10 0 6 -3 7 -8 0 -9 -13 -102 -15 -102 -2 0 5 -7 4 -15 -3
-12 -10 -15 -10 -15 1 0 10 -3 10 -8 3 -6 -10 -52 -12 -87 -4 -5 1 -14 1 -20
0 -5 -1 -14 -3 -20 -5 -5 -1 -20 -3 -32 -3 -16 -2 -24 -11 -31 -34 -10 -38 -9
-253 1 -283 8 -23 63 -49 73 -34 3 6 11 5 20 -2 8 -6 14 -7 14 -2 0 5 12 8 28
7 26 -1 27 -4 32 -58 8 -84 -8 -104 -85 -110 -11 0 -23 -5 -27 -11 -5 -6 -8
-5 -8 3 0 8 -5 10 -12 5 -16 -9 -121 -5 -128 6 -3 5 -13 7 -22 5 -10 -1 -18 2
-18 8 0 6 -7 8 -15 4 -8 -3 -15 -1 -15 4 0 6 -6 10 -14 10 -21 0 -101 82 -118
120 -35 78 -41 104 -41 179 -1 88 27 179 69 224 13 14 24 32 24 38 0 7 3 10 6
6 4 -3 26 7 50 23 23 17 49 30 58 30 8 0 17 4 20 9 4 5 14 8 23 7 10 -2 32 0
50 5 18 4 35 3 38 -1 2 -4 16 -5 30 -2 44 8 195 -39 195 -62 0 -5 3 -7 6 -3 4
3 13 -1 21 -9 8 -8 19 -12 24 -9 5 4 9 1 9 -4 0 -19 44 -11 73 13 15 13 27 26
27 30 0 4 15 21 33 39 70 72 117 133 117 154 0 23 -66 93 -87 93 -7 0 -13 4
-13 8 0 10 -109 65 -175 87 -50 17 -77 23 -125 30 -14 2 -25 5 -25 6 0 5 -205
6 -210 1z"/>
<path d="M6960 7121 c0 -3 -12 -7 -28 -8 -41 -4 -55 -8 -78 -21 -12 -6 -24 -9
-27 -5 -4 3 -13 1 -20 -5 -8 -7 -17 -9 -20 -5 -4 3 -7 1 -7 -5 0 -7 -9 -12
-20 -12 -11 0 -20 -5 -20 -12 0 -6 -3 -9 -6 -5 -18 18 -208 -148 -246 -215
-12 -21 -25 -38 -29 -38 -4 0 -10 -13 -14 -30 -4 -16 -11 -30 -16 -30 -5 0 -9
-4 -9 -9 0 -5 -5 -22 -12 -38 -12 -30 -14 -36 -22 -70 -3 -13 -9 -33 -12 -45
-26 -107 -9 -325 35 -433 7 -16 12 -32 12 -35 0 -3 6 -12 12 -20 7 -8 20 -31
30 -50 23 -46 119 -160 134 -160 5 0 14 -9 21 -20 7 -11 18 -20 26 -20 8 0 16
-6 19 -14 5 -13 124 -75 158 -81 10 -2 25 -7 32 -12 6 -4 23 -9 37 -11 13 -2
28 -8 31 -14 4 -7 8 -6 11 2 3 10 9 10 23 2 12 -6 65 -8 130 -6 61 3 122 5
138 5 15 1 27 5 27 10 0 5 3 8 8 7 12 -4 152 45 152 53 0 4 12 12 28 17 30 11
55 30 108 80 19 17 40 32 46 32 6 0 8 3 5 7 -4 3 5 16 18 29 14 13 25 28 25
33 0 6 6 14 13 18 17 10 77 119 77 139 0 8 5 14 11 14 5 0 7 5 4 10 -4 6 -2
16 3 23 11 13 20 53 21 95 1 14 5 21 12 16 8 -5 8 -1 0 14 -6 12 -7 23 -3 26
10 6 8 167 -3 216 -4 19 -8 45 -8 58 -1 12 -5 22 -9 22 -4 0 -7 3 -7 8 1 4 0
9 -1 12 -1 3 -3 12 -5 20 -7 38 -72 158 -99 182 -10 10 -16 18 -13 18 10 0
-93 102 -133 131 -46 34 -150 91 -150 83 0 -4 -6 -1 -14 5 -8 7 -27 14 -43 17
-15 3 -37 8 -48 11 -11 4 -28 8 -37 9 -10 1 -19 3 -20 4 -6 6 -228 6 -228 1z
m160 -355 c61 -8 81 -15 123 -40 49 -28 108 -82 99 -90 -3 -3 -1 -6 5 -6 10 0
22 -24 45 -90 32 -89 26 -208 -13 -295 -14 -32 -69 -108 -82 -113 -4 -2 -14
-10 -22 -18 -33 -34 -110 -57 -195 -59 -47 -2 -90 2 -97 7 -7 5 -17 7 -23 3
-5 -3 -10 -1 -10 6 0 7 -3 9 -6 6 -4 -4 -20 3 -35 14 -16 11 -29 18 -29 15 0
-17 -85 85 -107 127 -31 63 -34 75 -37 171 -3 63 2 92 21 144 23 66 29 74 92
139 31 31 66 53 82 49 3 0 13 5 22 13 10 7 17 10 17 6 0 -4 6 -3 13 3 6 5 24
8 40 6 15 -1 27 1 27 6 0 4 8 6 18 4 9 -2 33 -5 52 -8z"/>
<path d="M9263 7119 c-10 -4 -21 -5 -25 -3 -4 3 -9 0 -13 -5 -3 -6 -12 -8 -20
-4 -8 3 -15 0 -15 -7 0 -6 -4 -9 -8 -6 -8 5 -86 -31 -164 -76 -21 -12 -38 -27
-38 -34 0 -7 -9 -16 -20 -19 -11 -3 -20 -9 -20 -13 0 -4 -10 -18 -23 -32 -24
-26 -41 -59 -39 -72 1 -5 -2 -8 -7 -8 -8 0 -22 -57 -23 -87 0 -5 -4 -16 -9
-25 -6 -11 -5 -19 1 -23 8 -5 8 -11 1 -19 -6 -7 -8 -15 -5 -19 3 -3 8 -32 10
-63 3 -32 10 -62 17 -66 6 -4 8 -10 5 -14 -19 -19 103 -158 150 -170 12 -4 22
-10 22 -15 0 -5 3 -8 8 -8 21 4 32 -2 26 -13 -5 -7 -2 -9 8 -5 9 3 19 3 23 -1
4 -4 10 -7 13 -8 4 0 14 -3 22 -7 37 -14 88 -27 118 -29 17 -1 32 -5 32 -8 0
-3 18 -6 40 -7 22 0 48 -4 58 -9 9 -4 25 -9 35 -10 27 -6 67 -35 68 -50 2 -22
4 -28 10 -39 8 -13 -26 -71 -40 -68 -6 2 -11 -2 -11 -8 0 -6 -9 -9 -20 -6 -11
3 -20 1 -20 -5 0 -6 -23 -8 -55 -6 -32 2 -55 -1 -55 -7 0 -6 -3 -5 -8 1 -4 6
-17 10 -29 9 -13 -1 -23 2 -23 6 0 5 -7 6 -15 3 -8 -4 -15 -1 -15 5 0 6 -7 8
-15 5 -8 -4 -15 -2 -15 3 0 5 -10 10 -22 10 -13 1 -24 7 -26 13 -2 5 -9 10
-16 10 -7 0 -21 9 -31 20 -10 11 -24 20 -32 20 -8 0 -11 5 -7 11 4 7 -5 9 -28
6 -26 -3 -52 -22 -108 -78 -41 -41 -73 -77 -72 -81 1 -5 -2 -8 -8 -8 -20 0
-48 -41 -42 -63 5 -21 109 -127 125 -127 4 0 26 -12 50 -27 23 -14 48 -26 54
-26 7 0 13 -5 13 -10 0 -6 3 -7 7 -4 3 4 17 0 31 -9 13 -9 21 -11 17 -4 -5 8
-2 9 11 1 31 -16 77 -27 117 -26 20 0 37 -2 37 -6 0 -7 196 -3 225 4 11 3 20
6 20 7 0 2 36 10 58 12 9 1 17 5 17 9 0 4 12 10 28 15 57 16 73 25 65 37 -3 5
-1 7 5 3 6 -3 18 2 28 11 10 10 19 16 20 13 3 -7 114 103 114 114 0 5 7 17 15
26 9 10 17 27 20 39 2 11 7 27 12 34 8 14 11 28 15 72 1 17 7 33 13 37 7 5 7
8 -1 8 -6 0 -10 10 -9 22 1 20 -3 48 -19 118 -9 42 -49 111 -82 144 -43 43
-72 66 -84 66 -6 0 -10 4 -10 9 0 5 -10 12 -22 16 -13 4 -25 8 -28 9 -3 2 -27
12 -53 24 -27 12 -53 20 -58 16 -5 -3 -9 0 -9 5 0 6 -3 10 -7 10 -5 -1 -10 -1
-13 1 -3 1 -16 3 -30 5 -14 2 -38 6 -55 10 -16 3 -43 8 -58 11 -16 2 -33 6
-38 9 -5 4 -18 8 -29 10 -22 4 -69 36 -70 47 0 4 4 18 10 32 13 34 53 58 102
62 23 2 47 5 55 8 7 3 13 0 13 -6 0 -7 4 -7 14 1 9 8 16 8 20 2 4 -6 14 -7 23
-4 9 4 14 2 11 -3 -4 -5 6 -10 20 -11 15 0 28 -6 30 -12 2 -6 8 -9 12 -6 5 3
20 -6 35 -21 14 -14 38 -32 52 -39 33 -17 63 -2 108 55 17 21 33 36 37 34 4
-3 9 5 13 16 4 11 9 19 13 17 4 -2 19 10 34 25 15 15 24 28 20 28 -4 0 -1 4 6
9 22 14 20 64 -4 86 -49 45 -75 65 -83 65 -5 0 -14 7 -21 15 -19 23 -109 63
-177 79 -35 8 -63 12 -63 10 0 -3 -9 0 -20 6 -15 8 -20 8 -20 -2 0 -9 -2 -10
-8 -2 -7 13 -167 15 -199 3z"/>
<path d="M10165 7022 c-1 -2 -15 -5 -31 -8 -50 -9 -95 -45 -116 -91 -11 -25
-17 -50 -15 -58 3 -7 0 -18 -6 -24 -8 -8 -8 -11 0 -11 6 0 10 -8 8 -17 -3 -23
22 -72 49 -98 l22 -20 -31 -15 c-16 -8 -30 -19 -30 -25 0 -5 -4 -15 -8 -22 -4
-6 -1 -14 5 -16 7 -3 9 -6 3 -6 -15 -1 -10 -855 5 -890 l11 -27 145 -1 c183
-1 188 2 189 106 0 41 -4 71 -10 71 -7 0 -7 3 0 8 6 4 10 39 10 77 0 39 -4 73
-10 77 -7 5 -7 8 0 8 14 0 13 150 0 150 -7 0 -7 3 0 8 6 4 10 40 10 80 0 41
-4 72 -10 72 -7 0 -7 3 0 8 6 4 10 39 10 77 0 39 -4 73 -10 77 -7 5 -7 8 0 8
8 0 12 79 6 121 -1 9 -39 50 -45 50 -20 -3 -26 0 -21 9 4 6 10 8 14 6 7 -5 37
39 41 59 1 6 6 15 10 20 14 17 5 135 -11 146 -8 5 -10 9 -6 9 11 0 -33 42 -61
58 -12 6 -29 12 -37 12 -8 0 -15 3 -15 8 0 6 -58 11 -65 4z"/>
<path d="M10839 6956 c-3 -3 -28 -8 -55 -10 -27 -3 -49 -5 -49 -6 0 -2 -76
-10 -128 -14 -49 -3 -62 -18 -64 -74 -1 -26 -2 -49 -3 -52 -2 -3 -2 -9 -1 -14
6 -31 5 -88 -1 -92 -16 -10 -48 -12 -53 -4 -3 5 -21 0 -40 -11 -31 -19 -35
-26 -36 -65 0 -24 -1 -57 -2 -72 0 -15 3 -33 7 -40 4 -7 4 -12 -1 -12 -4 0 -8
-11 -8 -25 0 -14 4 -25 10 -25 5 0 4 -5 -2 -11 -21 -21 20 -51 71 -54 25 -1
49 -5 53 -8 8 -9 7 -92 -2 -107 -3 -5 -2 -10 2 -10 9 0 8 -108 -1 -117 -2 -3
-1 -15 4 -27 4 -13 4 -29 -1 -39 -6 -9 -6 -17 -2 -17 4 0 9 -21 10 -48 5 -127
131 -275 248 -290 16 -2 32 -7 35 -10 3 -4 24 -7 47 -7 24 0 43 -4 43 -10 0
-7 3 -7 8 0 4 6 25 11 47 13 22 1 41 7 43 12 2 5 10 6 18 3 8 -3 14 0 14 7 0
6 4 9 9 6 5 -3 20 5 35 19 22 20 25 30 20 62 -3 21 -9 43 -14 48 -4 6 -6 18
-5 27 2 10 -1 20 -6 24 -5 3 -7 10 -4 15 4 5 1 9 -6 9 -6 0 -9 8 -6 20 3 11 0
20 -6 20 -6 0 -8 3 -4 6 9 9 -36 52 -48 45 -18 -10 -48 -14 -87 -9 -27 2 -31
30 -33 193 -1 164 0 176 21 168 8 -3 14 0 14 7 0 9 4 9 13 2 7 -6 22 -9 32 -7
11 2 24 4 28 4 5 1 6 5 3 10 -3 5 0 11 7 14 10 4 13 35 11 128 -1 147 0 139
-19 139 -8 0 -15 4 -15 9 0 4 -17 8 -37 8 -21 0 -43 1 -48 2 -7 1 -10 42 -10
111 1 80 -3 116 -13 131 -7 10 -17 17 -22 14 -4 -3 -10 0 -12 6 -2 5 -6 8 -9
5z"/>
<path d="M5930 6693 c0 -7 -11 -10 -27 -9 -16 2 -32 1 -38 -2 -5 -4 -14 -7
-20 -9 -5 -1 -21 -4 -34 -7 -14 -3 -28 -11 -33 -18 -4 -7 -8 -9 -8 -4 0 5 -8
2 -18 -7 -10 -10 -22 -14 -25 -10 -4 3 -7 0 -7 -7 0 -7 -3 -10 -6 -7 -13 12
-94 -87 -113 -137 -32 -88 -21 -233 24 -307 6 -9 31 -32 56 -51 44 -33 46 -36
29 -51 -10 -8 -21 -13 -24 -10 -3 4 -6 2 -6 -3 0 -9 -23 -37 -79 -100 -34 -37
-58 -75 -57 -90 1 -15 49 -74 61 -74 6 0 28 -14 49 -30 22 -17 48 -30 58 -30
10 0 18 -5 18 -12 0 -6 3 -9 6 -5 3 3 17 2 31 -4 52 -19 243 -35 243 -19 0 4
11 5 25 2 14 -2 25 0 25 4 0 5 14 10 32 11 18 0 34 6 36 12 2 6 7 9 12 6 5 -3
16 2 24 11 9 8 16 13 16 9 0 -3 7 0 16 7 100 81 134 152 129 268 -3 79 -25
157 -53 192 -32 38 -66 67 -93 79 -24 9 -26 14 -16 30 6 10 18 19 25 19 7 0
11 4 7 9 -3 5 5 17 17 25 12 9 19 16 15 16 -4 0 6 13 23 30 16 16 30 34 30 40
0 6 5 8 10 5 6 -3 10 1 10 9 0 9 4 16 9 16 27 0 -20 99 -46 100 -7 0 -13 7
-13 16 0 8 -4 12 -10 9 -5 -3 -10 -1 -10 5 0 6 -4 9 -9 6 -5 -3 -14 1 -21 9
-7 8 -16 13 -20 10 -5 -3 -14 0 -22 7 -14 14 -25 17 -63 20 -14 1 -25 5 -25 8
0 3 -28 6 -62 5 -35 0 -66 5 -70 10 -5 6 -8 6 -8 -2z m127 -343 c14 -8 8 -9
-27 -5 -41 4 -77 10 -90 15 -3 1 -9 2 -13 1 -5 -1 -6 3 -2 8 3 6 12 8 19 5 8
-3 17 -1 21 5 6 11 51 -3 92 -29z m-217 -304 c0 4 8 0 17 -7 14 -12 16 -12 8
0 -6 11 -5 12 6 5 18 -11 66 -20 127 -23 7 -1 10 -6 7 -11 -4 -6 -11 -8 -16
-5 -5 4 -9 2 -9 -2 0 -5 -18 -8 -40 -8 -22 0 -40 2 -40 6 0 3 -11 5 -25 4 -14
-2 -25 1 -25 6 0 6 -4 8 -9 5 -5 -3 -20 5 -34 18 -14 13 -29 21 -33 17 -4 -3
-4 0 0 6 6 10 14 10 37 -2 16 -9 29 -13 29 -9z"/>
<path d="M2445 6682 c-1 -2 -20 -5 -41 -8 -51 -5 -67 -8 -79 -15 -5 -3 -20 -4
-32 -3 -13 0 -23 -2 -23 -6 0 -8 -49 -25 -62 -22 -5 1 -8 -3 -8 -10 0 -6 -3
-9 -6 -5 -3 3 -23 -5 -44 -18 -21 -13 -40 -22 -43 -19 -2 3 -10 -9 -16 -25
-14 -31 -6 -51 60 -153 l30 -47 -43 -43 c-77 -78 -116 -171 -116 -275 0 -91
46 -223 78 -223 6 0 10 -6 10 -14 0 -8 9 -18 20 -21 11 -3 20 -11 20 -17 0 -6
3 -8 7 -5 3 4 18 -3 31 -15 14 -13 22 -18 18 -11 -4 7 4 6 23 -3 16 -8 45 -17
63 -20 50 -9 182 -12 193 -5 10 5 16 7 50 14 8 2 17 6 21 9 3 4 15 -1 26 -11
17 -16 37 -19 161 -18 126 0 144 2 158 19 15 17 16 53 13 346 -4 348 -5 372
-16 372 -5 0 -8 6 -8 13 0 23 -31 79 -68 124 -41 49 -146 104 -203 106 -22 1
-39 4 -39 7 0 5 -129 7 -135 2z m61 -565 c4 -4 15 -7 25 -7 23 0 38 -27 32
-60 -4 -29 -14 -40 -39 -45 -11 -2 -19 -4 -19 -5 0 -1 -19 -3 -42 -4 -24 -1
-43 1 -43 6 0 4 -7 5 -15 2 -8 -4 -15 -1 -15 6 0 6 -4 9 -9 6 -12 -8 -38 25
-38 47 0 21 35 47 66 50 12 1 21 4 21 8 0 8 67 5 76 -4z"/>
<path d="M3250 6680 c0 -3 -15 -6 -32 -7 -62 -2 -123 -8 -133 -14 -5 -3 -17
-5 -25 -4 -38 2 -39 -17 -40 -476 0 -411 1 -448 18 -466 16 -19 29 -20 159
-20 128 0 144 1 160 19 15 17 17 48 18 307 1 272 2 288 20 307 30 31 105 54
105 32 0 -4 9 -8 20 -8 12 0 26 -13 37 -32 14 -29 17 -70 18 -315 1 -264 2
-284 20 -296 13 -10 56 -14 156 -14 119 -1 140 2 157 17 18 17 19 34 20 293 0
152 3 285 7 297 9 29 36 60 47 54 4 -3 8 0 8 6 0 13 58 4 86 -15 36 -24 42
-64 43 -287 0 -117 0 -238 1 -269 0 -92 8 -96 177 -96 127 0 144 2 160 19 15
17 17 49 16 316 0 279 -3 341 -19 388 -19 57 -48 107 -84 146 -22 24 -40 46
-40 51 0 4 -9 7 -19 7 -10 0 -21 7 -25 15 -3 8 -15 15 -26 15 -11 0 -20 4 -20
9 0 4 -11 7 -25 6 -14 -2 -25 0 -25 5 0 4 -10 6 -22 6 -13 -1 -27 0 -33 3 -17
9 -105 7 -105 -2 0 -5 -7 -4 -15 3 -8 7 -15 9 -15 4 0 -5 -19 -10 -42 -11 -22
-1 -44 -7 -48 -13 -4 -7 -10 -11 -14 -10 -16 4 -66 -13 -66 -22 0 -6 -3 -9 -6
-5 -4 3 -13 -1 -21 -9 -14 -13 -17 -13 -32 1 -10 8 -22 15 -28 15 -6 0 -13 5
-15 10 -2 6 -13 12 -26 15 -12 2 -27 7 -33 11 -6 3 -27 8 -47 9 -20 2 -37 4
-37 5 0 7 -97 5 -101 -2 -3 -4 -14 -3 -26 3 -15 8 -19 8 -14 0 5 -7 -2 -11
-16 -11 -13 0 -29 -5 -35 -11 -8 -8 -17 -6 -32 7 -20 17 -111 29 -111 14z"/>
<path d="M4930 6680 c0 -7 -7 -10 -15 -6 -8 3 -15 1 -15 -5 0 -6 -4 -8 -9 -4
-5 3 -12 1 -15 -4 -4 -5 -14 -8 -24 -7 -9 2 -19 0 -22 -3 -3 -3 -25 -17 -51
-30 -105 -55 -196 -175 -227 -301 -8 -31 -8 -226 -1 -260 12 -53 57 -150 70
-150 6 0 8 -4 5 -9 -10 -16 135 -150 156 -144 4 2 8 -2 8 -8 0 -5 4 -8 9 -5 5
4 11 2 13 -3 1 -5 12 -11 23 -13 11 -1 22 -6 25 -10 3 -3 19 -8 37 -11 17 -3
37 -8 44 -13 8 -5 9 -3 4 6 -6 10 -4 11 6 4 21 -13 189 -13 189 0 0 6 4 5 9
-3 5 -8 11 -9 15 -3 4 6 15 9 26 7 11 -2 20 0 20 4 0 4 6 8 13 9 38 3 87 22
87 33 0 6 5 7 10 4 6 -3 10 -1 10 5 0 6 4 9 9 5 15 -9 106 87 106 112 0 13
-20 43 -47 72 -26 27 -44 52 -40 57 4 4 2 4 -4 1 -8 -5 -50 29 -41 35 1 0 39
2 85 3 107 2 110 6 107 139 -1 56 -5 108 -8 116 -4 8 -8 26 -10 40 -4 33 -57
150 -68 150 -5 0 -9 5 -9 11 0 14 -76 89 -90 89 -6 0 -9 4 -6 8 7 12 -133 74
-151 68 -7 -3 -13 -2 -13 3 0 4 -10 7 -22 6 -13 -1 -29 2 -35 8 -9 6 -13 6
-13 -3 0 -9 -4 -9 -12 -2 -14 10 -94 9 -105 -1 -3 -4 -12 -2 -20 4 -10 9 -13
8 -13 -1z m154 -313 c3 4 6 1 6 -6 0 -7 3 -10 8 -8 4 3 13 -2 21 -10 11 -13
11 -14 -5 -12 -11 2 -25 0 -31 -4 -7 -5 -13 -4 -13 1 0 10 -30 9 -48 -2 -6 -4
-12 -3 -12 2 0 5 -17 8 -37 6 l-38 -4 25 20 c14 11 33 18 42 16 10 -2 20 0 23
5 3 4 16 4 29 -1 13 -5 27 -6 30 -3z m79 -321 c9 1 15 -2 11 -7 -3 -5 -9 -7
-14 -4 -4 3 -10 1 -12 -4 -1 -5 -12 -11 -23 -13 -11 -1 -23 -7 -27 -13 -5 -6
-8 -5 -8 3 0 9 -6 10 -17 4 -28 -13 -87 -7 -116 13 -15 9 -27 18 -27 19 0 2
45 2 100 2 62 -1 100 2 100 9 0 6 3 6 8 -1 4 -6 15 -10 25 -8z"/>
<path d="M8090 6680 c0 -4 -21 -6 -46 -5 -25 0 -48 -3 -51 -8 -3 -5 -9 -3 -14
4 -7 11 -9 11 -9 1 0 -7 -12 -12 -27 -11 -37 1 -61 -5 -74 -18 -13 -13 -19
-159 -7 -190 4 -13 4 -23 -1 -23 -9 0 -6 -94 4 -109 3 -6 3 -11 -2 -11 -10 0
-9 -253 1 -269 4 -6 3 -11 -2 -11 -9 0 -7 -133 3 -149 3 -6 2 -11 -2 -11 -7 0
-9 -119 -3 -127 3 -4 7 -20 9 -34 0 -5 6 -7 11 -4 6 3 10 2 10 -3 0 -6 59 -10
145 -9 115 0 148 4 158 15 9 11 13 98 17 308 l5 293 29 30 c28 29 32 30 96 16
23 -5 63 -45 66 -66 1 -5 2 -133 3 -284 1 -253 2 -276 20 -294 16 -16 35 -18
152 -18 123 0 165 6 179 28 3 4 5 149 4 321 0 252 -4 323 -16 363 -17 54 -50
119 -74 142 -7 8 -14 18 -14 22 0 13 -100 82 -110 76 -6 -4 -13 0 -16 8 -3 8
-13 14 -22 12 -9 -1 -30 3 -47 9 -45 17 -167 10 -227 -13 -22 -8 -31 -7 -44 7
-17 16 -104 26 -104 12z"/>
<path d="M11537 6684 c-2 -3 -15 -7 -28 -8 -112 -15 -236 -93 -312 -196 -26
-36 -61 -117 -73 -167 -8 -38 -13 -206 -5 -218 6 -11 10 -27 13 -62 1 -13 6
-23 10 -23 4 0 8 -6 8 -14 0 -20 41 -95 68 -124 12 -14 22 -29 22 -33 0 -5 7
-9 15 -9 8 0 15 -7 15 -15 0 -8 7 -15 15 -15 7 0 18 -6 22 -13 8 -14 42 -31
56 -29 4 1 7 -2 7 -7 0 -5 15 -15 33 -21 67 -26 116 -33 222 -33 100 0 163 9
184 26 12 9 13 9 7 0 -4 -7 15 -2 41 10 74 35 113 60 113 74 0 7 5 13 11 13
19 0 34 25 34 56 0 24 -12 42 -50 80 -97 96 -97 90 1 90 80 1 88 3 105 25 10
13 14 26 8 27 -5 2 -6 9 -2 15 11 17 10 41 -2 49 -6 5 -6 8 1 8 9 0 12 38 4
48 -7 7 -5 29 3 40 6 7 6 12 0 12 -5 0 -10 8 -11 18 -1 9 -3 24 -5 32 -2 8 -7
32 -12 53 -4 20 -11 37 -17 37 -5 0 -6 5 -3 10 3 6 1 10 -5 10 -6 0 -8 5 -5
10 3 6 1 10 -4 10 -6 0 -11 6 -11 13 0 25 -116 147 -140 147 -5 0 -10 4 -10 8
0 9 -70 37 -82 34 -5 -1 -8 2 -8 6 0 5 -6 9 -12 9 -7 0 -31 4 -53 8 -64 12
-125 12 -125 1 0 -7 -3 -8 -8 -1 -8 12 -27 16 -35 9z m106 -316 c9 2 17 -2 17
-7 0 -6 6 -11 14 -11 8 0 17 -7 20 -16 3 -8 2 -12 -4 -9 -5 3 -48 6 -94 7 -68
0 -83 3 -79 14 4 12 8 12 21 2 10 -9 13 -9 9 -1 -8 13 27 28 43 18 5 -3 10 -1
10 5 0 6 5 8 13 3 6 -4 20 -6 30 -5z m107 -331 c0 -5 -6 -7 -14 -4 -8 3 -16 2
-18 -4 -2 -5 -16 -12 -32 -15 -16 -3 -34 -8 -39 -11 -6 -4 -7 -1 -2 6 5 10 3
11 -11 4 -36 -17 -133 4 -120 26 7 11 236 9 236 -2z"/>
</g>
</svg>
